<svg width="119" height="35" viewBox="0 0 119 35" fill="none" xmlns="http://www.w3.org/2000/svg">
<g filter="url(#filter0_d)">
<path d="M5.23484 1.024H19.8148V5.56H10.3828V10.348H18.1948V14.74H10.3828V20.464H19.8148V25H5.23484V1.024ZM32.0816 25.54C29.0096 25.54 26.6216 24.724 24.9176 23.092C23.2376 21.46 22.3976 19.156 22.3976 16.18C22.3976 14.164 22.7936 12.388 23.5856 10.852C24.3776 9.292 25.4936 8.092 26.9336 7.252C28.3736 6.388 30.0416 5.956 31.9376 5.956C32.8256 5.956 33.7496 6.064 34.7096 6.28C35.6936 6.472 36.4496 6.7 36.9776 6.964L36.0056 11.248C35.4536 10.984 34.8416 10.78 34.1696 10.636C33.5216 10.468 32.9096 10.384 32.3336 10.384C30.8456 10.384 29.6456 10.888 28.7336 11.896C27.8456 12.904 27.4016 14.236 27.4016 15.892C27.4016 17.572 27.8576 18.868 28.7696 19.78C29.7056 20.692 31.0256 21.148 32.7296 21.148C33.8576 21.148 35.0696 20.932 36.3656 20.5L37.1216 24.604C35.5616 25.228 33.8816 25.54 32.0816 25.54ZM49.1307 25.54C47.2587 25.54 45.6027 25.132 44.1627 24.316C42.7467 23.5 41.6427 22.36 40.8507 20.896C40.0587 19.408 39.6627 17.692 39.6627 15.748C39.6627 13.804 40.0467 12.1 40.8147 10.636C41.6067 9.148 42.7107 7.996 44.1267 7.18C45.5667 6.364 47.2227 5.956 49.0947 5.956C50.9667 5.956 52.6107 6.364 54.0267 7.18C55.4667 7.972 56.5707 9.1 57.3387 10.564C58.1307 12.028 58.5267 13.72 58.5267 15.64C58.5267 17.584 58.1307 19.312 57.3387 20.824C56.5707 22.312 55.4667 23.476 54.0267 24.316C52.6107 25.132 50.9787 25.54 49.1307 25.54ZM49.0947 21.148C50.3907 21.148 51.4227 20.656 52.1907 19.672C52.9827 18.664 53.3787 17.344 53.3787 15.712C53.3787 14.08 52.9827 12.784 52.1907 11.824C51.4227 10.84 50.3907 10.348 49.0947 10.348C47.7987 10.348 46.7547 10.84 45.9627 11.824C45.1947 12.784 44.8107 14.08 44.8107 15.712C44.8107 17.344 45.1947 18.664 45.9627 19.672C46.7547 20.656 47.7987 21.148 49.0947 21.148ZM67.5812 5.56H61.0292V1.024H79.3172V5.56H72.8372V25H67.5812V5.56ZM88.6153 25.54C85.6153 25.54 83.2513 24.676 81.5233 22.948C79.8193 21.22 78.9673 18.82 78.9673 15.748C78.9673 13.756 79.3393 12.028 80.0833 10.564C80.8273 9.076 81.8713 7.936 83.2153 7.144C84.5833 6.352 86.1793 5.956 88.0033 5.956C90.6913 5.956 92.7553 6.82 94.1953 8.548C95.6353 10.276 96.3553 12.772 96.3553 16.036C96.3553 16.588 96.3433 16.996 96.3193 17.26H84.0793C84.3193 18.532 84.8713 19.504 85.7353 20.176C86.5993 20.824 87.7633 21.148 89.2273 21.148C90.1153 21.148 91.0393 21.04 91.9993 20.824C92.9593 20.584 93.7993 20.272 94.5193 19.888L95.3473 23.956C94.3873 24.46 93.3193 24.844 92.1433 25.108C90.9913 25.396 89.8153 25.54 88.6153 25.54ZM91.4953 13.444C91.4233 12.412 91.0633 11.596 90.4153 10.996C89.7673 10.372 88.9033 10.06 87.8233 10.06C86.7913 10.06 85.9393 10.36 85.2673 10.96C84.6193 11.56 84.2113 12.388 84.0433 13.444H91.4953ZM108.968 25.54C105.896 25.54 103.508 24.724 101.804 23.092C100.124 21.46 99.2843 19.156 99.2843 16.18C99.2843 14.164 99.6803 12.388 100.472 10.852C101.264 9.292 102.38 8.092 103.82 7.252C105.26 6.388 106.928 5.956 108.824 5.956C109.712 5.956 110.636 6.064 111.596 6.28C112.58 6.472 113.336 6.7 113.864 6.964L112.892 11.248C112.34 10.984 111.728 10.78 111.056 10.636C110.408 10.468 109.796 10.384 109.22 10.384C107.732 10.384 106.532 10.888 105.62 11.896C104.732 12.904 104.288 14.236 104.288 15.892C104.288 17.572 104.744 18.868 105.656 19.78C106.592 20.692 107.912 21.148 109.616 21.148C110.744 21.148 111.956 20.932 113.252 20.5L114.008 24.604C112.448 25.228 110.768 25.54 108.968 25.54Z" fill="#81B214"/>
<path d="M5.23484 1.024V0.524H4.73484V1.024H5.23484ZM19.8148 1.024H20.3148V0.524H19.8148V1.024ZM19.8148 5.56V6.06H20.3148V5.56H19.8148ZM10.3828 5.56V5.06H9.88284V5.56H10.3828ZM10.3828 10.348H9.88284V10.848H10.3828V10.348ZM18.1948 10.348H18.6948V9.848H18.1948V10.348ZM18.1948 14.74V15.24H18.6948V14.74H18.1948ZM10.3828 14.74V14.24H9.88284V14.74H10.3828ZM10.3828 20.464H9.88284V20.964H10.3828V20.464ZM19.8148 20.464H20.3148V19.964H19.8148V20.464ZM19.8148 25V25.5H20.3148V25H19.8148ZM5.23484 25H4.73484V25.5H5.23484V25ZM5.23484 1.524H19.8148V0.524H5.23484V1.524ZM19.3148 1.024V5.56H20.3148V1.024H19.3148ZM19.8148 5.06H10.3828V6.06H19.8148V5.06ZM9.88284 5.56V10.348H10.8828V5.56H9.88284ZM10.3828 10.848H18.1948V9.848H10.3828V10.848ZM17.6948 10.348V14.74H18.6948V10.348H17.6948ZM18.1948 14.24H10.3828V15.24H18.1948V14.24ZM9.88284 14.74V20.464H10.8828V14.74H9.88284ZM10.3828 20.964H19.8148V19.964H10.3828V20.964ZM19.3148 20.464V25H20.3148V20.464H19.3148ZM19.8148 24.5H5.23484V25.5H19.8148V24.5ZM5.73484 25V1.024H4.73484V25H5.73484ZM24.9176 23.092L24.5692 23.4506L24.5717 23.4531L24.9176 23.092ZM23.5856 10.852L24.03 11.0811L24.0314 11.0783L23.5856 10.852ZM26.9336 7.252L27.1855 7.68392L27.1908 7.68075L26.9336 7.252ZM34.7096 6.28L34.5998 6.7678L34.6068 6.76937L34.6138 6.77074L34.7096 6.28ZM36.9776 6.964L37.4652 7.07463L37.5519 6.69217L37.2012 6.51678L36.9776 6.964ZM36.0056 11.248L35.7898 11.6991L36.3546 11.9692L36.4932 11.3586L36.0056 11.248ZM34.1696 10.636L34.0441 11.12L34.0544 11.1227L34.0648 11.1249L34.1696 10.636ZM28.7336 11.896L28.3628 11.5605L28.3584 11.5655L28.7336 11.896ZM28.7696 19.78L28.416 20.1336L28.4206 20.1381L28.7696 19.78ZM36.3656 20.5L36.8573 20.4094L36.7531 19.8438L36.2075 20.0257L36.3656 20.5ZM37.1216 24.604L37.3073 25.0682L37.6875 24.9161L37.6133 24.5134L37.1216 24.604ZM32.0816 25.04C29.0982 25.04 26.8488 24.2493 25.2634 22.7309L24.5717 23.4531C26.3943 25.1987 28.921 26.04 32.0816 26.04V25.04ZM25.266 22.7334C23.7074 21.2194 22.8976 19.0595 22.8976 16.18H21.8976C21.8976 19.2525 22.7677 21.7006 24.5692 23.4506L25.266 22.7334ZM22.8976 16.18C22.8976 14.2304 23.2801 12.5354 24.03 11.0811L23.1412 10.6229C22.307 12.2406 21.8976 14.0976 21.8976 16.18H22.8976ZM24.0314 11.0783C24.7821 9.59962 25.8328 8.47298 27.1855 7.68389L26.6816 6.82011C25.1544 7.71101 23.973 8.98438 23.1397 10.6257L24.0314 11.0783ZM27.1908 7.68075C28.5434 6.86916 30.1202 6.456 31.9376 6.456V5.456C29.9629 5.456 28.2037 5.90684 26.6763 6.82325L27.1908 7.68075ZM31.9376 6.456C32.7849 6.456 33.672 6.55905 34.5998 6.7678L34.8193 5.79219C33.8271 5.56895 32.8662 5.456 31.9376 5.456V6.456ZM34.6138 6.77074C35.5797 6.95921 36.2849 7.17667 36.754 7.41121L37.2012 6.51678C36.6142 6.22332 35.8074 5.98479 34.8053 5.78925L34.6138 6.77074ZM36.49 6.85336L35.518 11.1374L36.4932 11.3586L37.4652 7.07463L36.49 6.85336ZM36.2213 10.7969C35.6299 10.5141 34.98 10.2983 34.2743 10.1471L34.0648 11.1249C34.7031 11.2617 35.2772 11.4539 35.7898 11.6991L36.2213 10.7969ZM34.295 10.152C33.6125 9.97505 32.9581 9.884 32.3336 9.884V10.884C32.861 10.884 33.4306 10.9609 34.0441 11.12L34.295 10.152ZM32.3336 9.884C30.7192 9.884 29.3792 10.4372 28.3628 11.5605L29.1043 12.2315C29.9119 11.3388 30.9719 10.884 32.3336 10.884V9.884ZM28.3584 11.5655C27.3724 12.6847 26.9016 14.1438 26.9016 15.892H27.9016C27.9016 14.3282 28.3187 13.1233 29.1087 12.2265L28.3584 11.5655ZM26.9016 15.892C26.9016 17.6628 27.3843 19.1019 28.416 20.1336L29.1231 19.4264C28.3308 18.6341 27.9016 17.4812 27.9016 15.892H26.9016ZM28.4206 20.1381C29.4758 21.1662 30.9363 21.648 32.7296 21.648V20.648C31.1148 20.648 29.9353 20.2178 29.1185 19.4219L28.4206 20.1381ZM32.7296 21.648C33.9213 21.648 35.1871 21.4199 36.5237 20.9743L36.2075 20.0257C34.952 20.4441 33.7939 20.648 32.7296 20.648V21.648ZM35.8738 20.5906L36.6298 24.6946L37.6133 24.5134L36.8573 20.4094L35.8738 20.5906ZM36.9359 24.1398C35.439 24.7385 33.8225 25.04 32.0816 25.04V26.04C33.9406 26.04 35.6841 25.7175 37.3073 25.0682L36.9359 24.1398ZM44.1627 24.316L43.913 24.7492L43.9162 24.751L44.1627 24.316ZM40.8507 20.896L40.4093 21.1309L40.4109 21.1339L40.8507 20.896ZM40.8147 10.636L40.3733 10.4011L40.3719 10.4037L40.8147 10.636ZM44.1267 7.18L43.8801 6.74498L43.877 6.74678L44.1267 7.18ZM54.0267 7.18L53.777 7.6133L53.7857 7.61811L54.0267 7.18ZM57.3387 10.564L56.8958 10.7963L56.8989 10.8019L57.3387 10.564ZM57.3387 20.824L56.8957 20.592L56.8943 20.5947L57.3387 20.824ZM54.0267 24.316L54.2763 24.7492L54.2786 24.7479L54.0267 24.316ZM52.1907 19.672L51.7975 19.3631L51.7965 19.3644L52.1907 19.672ZM52.1907 11.824L51.7964 12.1317L51.805 12.1422L52.1907 11.824ZM45.9627 11.824L45.5732 11.5105L45.5722 11.5117L45.9627 11.824ZM45.9627 19.672L45.5648 19.9751L45.5732 19.9855L45.9627 19.672ZM49.1307 25.04C47.3335 25.04 45.7646 24.6491 44.4092 23.881L43.9162 24.751C45.4408 25.6149 47.1838 26.04 49.1307 26.04V25.04ZM44.4123 23.8828C43.0781 23.1139 42.0392 22.0422 41.2904 20.6581L40.4109 21.1339C41.2461 22.6778 42.4152 23.8861 43.913 24.7492L44.4123 23.8828ZM41.292 20.6611C40.5441 19.2558 40.1627 17.6227 40.1627 15.748H39.1627C39.1627 17.7613 39.5733 19.5602 40.4093 21.1309L41.292 20.6611ZM40.1627 15.748C40.1627 13.8707 40.5331 12.249 41.2574 10.8683L40.3719 10.4037C39.5602 11.951 39.1627 13.7373 39.1627 15.748H40.1627ZM41.256 10.8709C42.0054 9.46295 43.0442 8.38087 44.3763 7.61321L43.877 6.74678C42.3771 7.61112 41.2079 8.83305 40.3733 10.4011L41.256 10.8709ZM44.3732 7.61501C45.7286 6.84695 47.2975 6.456 49.0947 6.456V5.456C47.1478 5.456 45.4047 5.88105 43.8801 6.74499L44.3732 7.61501ZM49.0947 6.456C50.892 6.456 52.4474 6.847 53.777 7.61321L54.2763 6.74678C52.7739 5.88099 51.0414 5.456 49.0947 5.456V6.456ZM53.7857 7.61811C55.1391 8.3625 56.1732 9.41866 56.8959 10.7963L57.7814 10.3317C56.9681 8.78134 55.7942 7.5815 54.2676 6.74189L53.7857 7.61811ZM56.8989 10.8019C57.6457 12.1823 58.0267 13.7902 58.0267 15.64H59.0267C59.0267 13.6498 58.6157 11.8737 57.7784 10.3261L56.8989 10.8019ZM58.0267 15.64C58.0267 17.5145 57.6453 19.161 56.8957 20.592L57.7816 21.056C58.616 19.463 59.0267 17.6535 59.0267 15.64H58.0267ZM56.8943 20.5947C56.1697 21.9986 55.1323 23.0922 53.7747 23.8841L54.2786 24.7479C55.801 23.8598 56.9716 22.6254 57.783 21.0533L56.8943 20.5947ZM53.777 23.8828C52.4464 24.6495 50.9027 25.04 49.1307 25.04V26.04C51.0546 26.04 52.7749 25.6145 54.2763 24.7492L53.777 23.8828ZM49.0947 21.648C50.5378 21.648 51.7179 21.0903 52.5848 19.9796L51.7965 19.3644C51.1274 20.2217 50.2435 20.648 49.0947 20.648V21.648ZM52.5838 19.9809C53.462 18.8632 53.8787 17.425 53.8787 15.712H52.8787C52.8787 17.263 52.5033 18.4648 51.7975 19.3631L52.5838 19.9809ZM53.8787 15.712C53.8787 14.0004 53.4626 12.58 52.5763 11.5058L51.805 12.1422C52.5028 12.988 52.8787 14.1596 52.8787 15.712H53.8787ZM52.5848 11.5164C51.7179 10.4057 50.5378 9.848 49.0947 9.848V10.848C50.2435 10.848 51.1274 11.2743 51.7965 12.1316L52.5848 11.5164ZM49.0947 9.848C47.6519 9.848 46.4629 10.4051 45.5732 11.5105L46.3522 12.1375C47.0464 11.2749 47.9455 10.848 49.0947 10.848V9.848ZM45.5722 11.5117C44.7131 12.5856 44.3107 14.0037 44.3107 15.712H45.3107C45.3107 14.1563 45.6762 12.9824 46.3531 12.1363L45.5722 11.5117ZM44.3107 15.712C44.3107 17.4217 44.7136 18.8577 45.5649 19.975L46.3604 19.369C45.6757 18.4703 45.3107 17.2663 45.3107 15.712H44.3107ZM45.5732 19.9855C46.4629 21.0909 47.6519 21.648 49.0947 21.648V20.648C47.9455 20.648 47.0464 20.2211 46.3522 19.3585L45.5732 19.9855ZM67.5812 5.56H68.0812V5.06H67.5812V5.56ZM61.0292 5.56H60.5292V6.06H61.0292V5.56ZM61.0292 1.024V0.524H60.5292V1.024H61.0292ZM79.3172 1.024H79.8172V0.524H79.3172V1.024ZM79.3172 5.56V6.06H79.8172V5.56H79.3172ZM72.8372 5.56V5.06H72.3372V5.56H72.8372ZM72.8372 25V25.5H73.3372V25H72.8372ZM67.5812 25H67.0812V25.5H67.5812V25ZM67.5812 5.06H61.0292V6.06H67.5812V5.06ZM61.5292 5.56V1.024H60.5292V5.56H61.5292ZM61.0292 1.524H79.3172V0.524H61.0292V1.524ZM78.8172 1.024V5.56H79.8172V1.024H78.8172ZM79.3172 5.06H72.8372V6.06H79.3172V5.06ZM72.3372 5.56V25H73.3372V5.56H72.3372ZM72.8372 24.5H67.5812V25.5H72.8372V24.5ZM68.0812 25V5.56H67.0812V25H68.0812ZM81.5233 22.948L81.1673 23.2991L81.1698 23.3016L81.5233 22.948ZM80.0833 10.564L80.5291 10.7905L80.5306 10.7876L80.0833 10.564ZM83.2153 7.144L82.9648 6.71127L82.9615 6.71323L83.2153 7.144ZM94.1953 8.548L94.5795 8.22791L94.1953 8.548ZM96.3193 17.26V17.76H96.776L96.8173 17.3053L96.3193 17.26ZM84.0793 17.26V16.76H83.4762L83.588 17.3527L84.0793 17.26ZM85.7353 20.176L85.4283 20.5707L85.4353 20.576L85.7353 20.176ZM91.9993 20.824L92.1091 21.3119L92.1206 21.3091L91.9993 20.824ZM94.5193 19.888L95.0093 19.7883L94.8756 19.1313L94.284 19.4468L94.5193 19.888ZM95.3473 23.956L95.5798 24.3987L95.9122 24.2242L95.8373 23.8563L95.3473 23.956ZM92.1433 25.108L92.0338 24.62L92.0221 24.6229L92.1433 25.108ZM91.4953 13.444V13.944H92.0314L91.9941 13.4092L91.4953 13.444ZM90.4153 10.996L90.0685 11.3562L90.0756 11.3629L90.4153 10.996ZM85.2673 10.96L84.9343 10.587L84.9276 10.5931L85.2673 10.96ZM84.0433 13.444L83.5496 13.3654L83.4575 13.944H84.0433V13.444ZM88.6153 25.04C85.7159 25.04 83.4907 24.2082 81.8769 22.5944L81.1698 23.3016C83.012 25.1438 85.5148 26.04 88.6153 26.04V25.04ZM81.8794 22.5969C80.2905 20.9857 79.4673 18.7253 79.4673 15.748H78.4673C78.4673 18.9147 79.3482 21.4543 81.1673 23.2991L81.8794 22.5969ZM79.4673 15.748C79.4673 13.8182 79.8276 12.1709 80.5291 10.7905L79.6376 10.3375C78.8511 11.8851 78.4673 13.6938 78.4673 15.748H79.4673ZM80.5306 10.7876C81.2344 9.37986 82.2139 8.31451 83.4692 7.57477L82.9615 6.71323C81.5288 7.55749 80.4203 8.77214 79.6361 10.3404L80.5306 10.7876ZM83.4659 7.57671C84.7467 6.83519 86.2536 6.456 88.0033 6.456V5.456C86.1051 5.456 84.42 5.86881 82.9648 6.71129L83.4659 7.57671ZM88.0033 6.456C90.5749 6.456 92.485 7.27656 93.8112 8.86809L94.5795 8.22791C93.0257 6.36344 90.8078 5.456 88.0033 5.456V6.456ZM93.8112 8.86809C95.1489 10.4734 95.8553 12.8375 95.8553 16.036H96.8553C96.8553 12.7065 96.1217 10.0786 94.5795 8.22791L93.8112 8.86809ZM95.8553 16.036C95.8553 16.5854 95.8432 16.9745 95.8214 17.2147L96.8173 17.3053C96.8435 17.0175 96.8553 16.5906 96.8553 16.036H95.8553ZM96.3193 16.76H84.0793V17.76H96.3193V16.76ZM83.588 17.3527C83.8463 18.7214 84.4511 19.8106 85.4284 20.5707L86.0423 19.7813C85.2916 19.1974 84.7924 18.3426 84.5707 17.1673L83.588 17.3527ZM85.4353 20.576C86.412 21.3085 87.6931 21.648 89.2273 21.648V20.648C87.8335 20.648 86.7867 20.3395 86.0353 19.776L85.4353 20.576ZM89.2273 21.648C90.156 21.648 91.1169 21.535 92.1091 21.3118L91.8896 20.3362C90.9618 20.5449 90.0747 20.648 89.2273 20.648V21.648ZM92.1206 21.3091C93.1122 21.0612 93.9919 20.736 94.7546 20.3292L94.284 19.4468C93.6068 19.808 92.8065 20.1068 91.8781 20.3389L92.1206 21.3091ZM94.0294 19.9877L94.8574 24.0557L95.8373 23.8563L95.0093 19.7883L94.0294 19.9877ZM95.1149 23.5133C94.1978 23.9948 93.1718 24.3647 92.0338 24.6201L92.2529 25.5959C93.4669 25.3233 94.5769 24.9252 95.5798 24.3987L95.1149 23.5133ZM92.0221 24.6229C90.9102 24.9009 89.7749 25.04 88.6153 25.04V26.04C89.8558 26.04 91.0725 25.8911 92.2646 25.5931L92.0221 24.6229ZM91.9941 13.4092C91.9149 12.2735 91.5122 11.3302 90.7551 10.6291L90.0756 11.3629C90.6145 11.8618 90.9318 12.5505 90.9966 13.4788L91.9941 13.4092ZM90.7622 10.6358C90.0029 9.90465 89.0051 9.56 87.8233 9.56V10.56C88.8016 10.56 89.5318 10.8394 90.0685 11.3562L90.7622 10.6358ZM87.8233 9.56C86.6876 9.56 85.7113 9.89334 84.9343 10.587L85.6003 11.333C86.1674 10.8267 86.8951 10.56 87.8233 10.56V9.56ZM84.9276 10.5931C84.1812 11.2843 83.7313 12.2228 83.5496 13.3654L84.5371 13.5226C84.6914 12.5532 85.0575 11.8357 85.607 11.3269L84.9276 10.5931ZM84.0433 13.944H91.4953V12.944H84.0433V13.944ZM101.804 23.092L101.456 23.4506L101.458 23.4531L101.804 23.092ZM100.472 10.852L100.917 11.0811L100.918 11.0783L100.472 10.852ZM103.82 7.252L104.072 7.68392L104.078 7.68075L103.82 7.252ZM111.596 6.28L111.487 6.7678L111.493 6.76937L111.501 6.77074L111.596 6.28ZM113.864 6.964L114.352 7.07463L114.439 6.69217L114.088 6.51678L113.864 6.964ZM112.892 11.248L112.677 11.6991L113.241 11.9692L113.38 11.3586L112.892 11.248ZM111.056 10.636L110.931 11.12L110.941 11.1227L110.952 11.1249L111.056 10.636ZM105.62 11.896L105.249 11.5605L105.245 11.5655L105.62 11.896ZM105.656 19.78L105.303 20.1336L105.307 20.1381L105.656 19.78ZM113.252 20.5L113.744 20.4094L113.64 19.8438L113.094 20.0257L113.252 20.5ZM114.008 24.604L114.194 25.0682L114.574 24.9161L114.5 24.5134L114.008 24.604ZM108.968 25.04C105.985 25.04 103.736 24.2493 102.15 22.7309L101.458 23.4531C103.281 25.1987 105.808 26.04 108.968 26.04V25.04ZM102.153 22.7334C100.594 21.2194 99.7843 19.0595 99.7843 16.18H98.7843C98.7843 19.2525 99.6544 21.7006 101.456 23.4506L102.153 22.7334ZM99.7843 16.18C99.7843 14.2304 100.167 12.5354 100.917 11.0811L100.028 10.6229C99.1937 12.2406 98.7843 14.0976 98.7843 16.18H99.7843ZM100.918 11.0783C101.669 9.59962 102.719 8.47298 104.072 7.68389L103.568 6.82011C102.041 7.71101 100.86 8.98438 100.026 10.6257L100.918 11.0783ZM104.078 7.68075C105.43 6.86916 107.007 6.456 108.824 6.456V5.456C106.85 5.456 105.09 5.90684 103.563 6.82325L104.078 7.68075ZM108.824 6.456C109.672 6.456 110.559 6.55905 111.487 6.7678L111.706 5.79219C110.714 5.56895 109.753 5.456 108.824 5.456V6.456ZM111.501 6.77074C112.466 6.95921 113.172 7.17667 113.641 7.41121L114.088 6.51678C113.501 6.22332 112.694 5.98479 111.692 5.78925L111.501 6.77074ZM113.377 6.85336L112.405 11.1374L113.38 11.3586L114.352 7.07463L113.377 6.85336ZM113.108 10.7969C112.517 10.5141 111.867 10.2983 111.161 10.1471L110.952 11.1249C111.59 11.2617 112.164 11.4539 112.677 11.6991L113.108 10.7969ZM111.182 10.152C110.499 9.97505 109.845 9.884 109.22 9.884V10.884C109.748 10.884 110.317 10.9609 110.931 11.12L111.182 10.152ZM109.22 9.884C107.606 9.884 106.266 10.4372 105.25 11.5605L105.991 12.2315C106.799 11.3388 107.859 10.884 109.22 10.884V9.884ZM105.245 11.5655C104.259 12.6847 103.788 14.1438 103.788 15.892H104.788C104.788 14.3282 105.205 13.1233 105.995 12.2265L105.245 11.5655ZM103.788 15.892C103.788 17.6628 104.271 19.1019 105.303 20.1336L106.01 19.4264C105.218 18.6341 104.788 17.4812 104.788 15.892H103.788ZM105.307 20.1381C106.363 21.1662 107.823 21.648 109.616 21.648V20.648C108.002 20.648 106.822 20.2178 106.005 19.4219L105.307 20.1381ZM109.616 21.648C110.808 21.648 112.074 21.4199 113.41 20.9743L113.094 20.0257C111.839 20.4441 110.681 20.648 109.616 20.648V21.648ZM112.761 20.5906L113.517 24.6946L114.5 24.5134L113.744 20.4094L112.761 20.5906ZM113.823 24.1398C112.326 24.7385 110.709 25.04 108.968 25.04V26.04C110.827 26.04 112.571 25.7175 114.194 25.0682L113.823 24.1398Z" fill="black"/>
</g>
<defs>
<filter id="filter0_d" x="0.734844" y="0.524002" width="117.839" height="33.516" filterUnits="userSpaceOnUse" color-interpolation-filters="sRGB">
<feFlood flood-opacity="0" result="BackgroundImageFix"/>
<feColorMatrix in="SourceAlpha" type="matrix" values="0 0 0 0 0 0 0 0 0 0 0 0 0 0 0 0 0 0 127 0"/>
<feOffset dy="4"/>
<feGaussianBlur stdDeviation="2"/>
<feColorMatrix type="matrix" values="0 0 0 0 0 0 0 0 0 0 0 0 0 0 0 0 0 0 0.25 0"/>
<feBlend mode="normal" in2="BackgroundImageFix" result="effect1_dropShadow"/>
<feBlend mode="normal" in="SourceGraphic" in2="effect1_dropShadow" result="shape"/>
</filter>
</defs>
</svg>
